<?xml version="1.0" standalone="no"?>
<!DOCTYPE svg PUBLIC "-//W3C//DTD SVG 20010904//EN"
 "http://www.w3.org/TR/2001/REC-SVG-20010904/DTD/svg10.dtd">
<svg version="1.0" xmlns="http://www.w3.org/2000/svg"
 width="877.000000pt" height="877.000000pt" viewBox="0 0 877.000000 877.000000"
 preserveAspectRatio="xMidYMid meet">

<g transform="translate(0.000000,877.000000) scale(0.100000,-0.100000)"
fill="#000000" stroke="none">
<path d="M4370 8733 c-676 -48 -1265 -396 -1648 -973 -172 -259 -286 -583
-322 -918 -16 -141 -8 -471 14 -598 40 -231 119 -473 221 -671 l63 -123 -402
0 c-435 0 -455 -2 -565 -57 -64 -32 -166 -129 -205 -195 -14 -24 -36 -71 -48
-104 l-23 -59 -3 -1732 c-2 -1511 0 -1742 13 -1805 45 -220 212 -391 423 -433
68 -14 132 -16 372 -13 l289 3 31 -81 30 -80 0 -447 0 -447 30 0 30 0 0 476 0
477 -33 89 -32 89 -55 -5 c-30 -3 -159 -9 -286 -12 -195 -5 -245 -4 -315 11
-212 42 -379 213 -424 433 -13 63 -15 287 -13 1745 l3 1672 23 59 c66 173 198
297 363 341 43 12 142 15 472 15 l417 0 0 36 c0 24 -12 56 -34 93 -129 213
-237 515 -281 785 -50 296 -18 640 86 942 211 615 722 1119 1342 1325 245 82
526 118 766 99 784 -60 1418 -490 1762 -1195 243 -501 288 -1033 130 -1546
-104 -337 -259 -601 -503 -854 -166 -173 -401 -347 -582 -431 -83 -38 -85 -40
-86 -74 0 -21 19 -78 46 -140 208 -472 313 -841 373 -1310 32 -245 41 -376 48
-739 l6 -339 116 -4 c128 -5 180 -21 243 -77 41 -36 95 -41 156 -15 131 56
532 195 617 215 148 33 263 25 389 -28 289 -121 516 -472 520 -803 1 -120 -22
-215 -81 -340 -38 -79 -59 -107 -132 -181 -67 -67 -103 -94 -161 -122 -111
-53 -535 -180 -695 -209 -44 -7 -173 -12 -350 -13 -239 0 -284 -3 -310 -17
-53 -28 -141 -49 -242 -56 l-98 -7 -3 -192 -2 -193 30 0 30 0 2 162 3 163 98
7 c98 7 187 27 239 54 22 11 92 15 315 18 159 2 317 9 353 15 157 28 581 156
690 208 58 28 94 55 161 122 73 74 94 102 132 181 67 141 82 215 81 400 0 135
-4 168 -27 255 -63 234 -195 423 -387 552 -154 104 -380 137 -598 87 -101 -23
-561 -181 -623 -215 -15 -8 -27 -4 -57 21 -61 49 -136 70 -250 70 l-99 0 -6
343 c-7 363 -15 488 -48 737 -59 462 -159 815 -363 1288 l-35 82 82 41 c191
96 407 259 569 427 325 340 507 724 579 1222 19 131 17 492 -4 630 -37 243
-100 446 -206 665 -342 701 -978 1135 -1752 1195 -117 9 -269 10 -369 3z"/>
<path d="M4346 8439 c-532 -47 -1052 -360 -1358 -818 -193 -289 -292 -597
-305 -951 -17 -467 123 -896 410 -1252 l70 -87 151 -50 c185 -61 758 -247
1285 -416 384 -124 396 -127 465 -123 134 9 365 103 533 215 75 51 138 102
132 107 -2 1 -33 13 -69 26 -113 39 -282 127 -379 197 -478 342 -702 876 -591
1412 104 506 513 934 1060 1109 52 17 112 33 133 37 20 4 37 11 37 16 0 16
-220 206 -307 265 -359 242 -809 353 -1267 313z"/>
<path d="M5997 7624 c-557 -120 -978 -507 -1077 -992 -72 -353 36 -701 304
-980 157 -164 366 -292 597 -367 l114 -37 42 49 c218 248 363 560 424 908 27
156 32 445 10 590 -27 185 -81 376 -153 540 -58 132 -158 305 -177 304 -9 0
-47 -7 -84 -15z"/>
<path d="M1885 5136 c-28 -12 -65 -39 -83 -60 -67 -77 -62 68 -60 -1825 l3
-1716 27 -45 c35 -60 72 -94 133 -122 47 -21 65 -23 275 -26 124 -2 253 -1
287 3 l61 6 -29 112 c-100 376 -353 1399 -383 1542 -47 234 -60 352 -53 525
10 277 84 499 249 747 79 118 277 326 380 398 l58 40 0 223 0 222 -407 0
c-406 0 -408 0 -458 -24z"/>
<path d="M2990 4962 l0 -178 88 -12 c294 -40 728 -185 1197 -402 353 -163 495
-215 715 -264 114 -25 346 -54 356 -44 6 7 -39 130 -111 301 l-59 137 -93 0
c-160 0 -202 12 -1003 275 -648 213 -910 301 -997 336 -40 16 -78 29 -83 29
-6 0 -10 -69 -10 -178z"/>
<path d="M2811 4459 c-366 -293 -550 -696 -511 -1114 6 -60 22 -168 36 -239
22 -113 124 -537 184 -761 83 -311 159 -612 214 -845 69 -290 116 -445 163
-532 15 -29 68 -94 118 -143 72 -73 107 -99 175 -133 152 -76 77 -72 1227 -72
l1031 0 12 53 c42 196 45 230 45 512 -1 297 -10 383 -59 555 l-21 75 -617 5
-616 5 -26 24 c-14 13 -30 38 -35 55 -9 29 -75 365 -216 1106 -31 162 -67 351
-81 419 -31 162 -31 201 1 239 30 36 73 48 118 32 73 -23 69 -10 182 -601 57
-299 125 -655 152 -791 l47 -248 648 0 648 0 0 80 0 79 -377 3 -378 3 -57 28
c-33 16 -76 49 -102 78 -77 86 -77 88 -74 570 3 383 5 427 21 456 31 57 80
105 132 129 49 23 55 24 383 24 284 0 332 2 332 15 0 18 -36 171 -56 241 l-15
51 -142 6 c-347 15 -617 94 -1122 327 -454 210 -764 316 -1078 370 -180 30
-171 32 -286 -61z"/>
<path d="M4899 3253 c-11 -13 -15 -89 -17 -375 l-3 -359 30 -29 29 -30 348 0
347 0 -7 148 c-10 213 -40 522 -62 635 l-6 27 -323 0 c-288 0 -324 -2 -336
-17z"/>
<path d="M7065 1954 c-105 -27 -636 -212 -651 -227 -2 -2 4 -39 13 -83 15 -68
18 -129 17 -424 -1 -306 -3 -355 -20 -433 -11 -48 -18 -90 -15 -91 19 -11 329
-4 411 8 150 24 589 156 666 201 121 71 194 225 194 408 0 260 -141 507 -344
603 -67 32 -88 37 -164 40 -48 2 -96 1 -107 -2z"/>
<path d="M5685 1793 c19 -76 45 -243 56 -356 23 -244 -3 -686 -47 -800 -6 -16
7 -17 170 -17 210 0 235 8 278 87 54 100 63 175 63 538 0 344 -5 395 -46 477
-10 20 -35 49 -56 65 l-36 28 -195 3 -194 3 7 -28z"/>
<path d="M2888 305 l3 -305 1364 0 1365 0 0 190 0 190 -1152 3 c-1071 2 -1157
4 -1213 20 -93 28 -234 100 -303 156 -34 28 -63 51 -65 51 -1 0 -1 -137 1
-305z"/>
</g>
</svg>
